<?xml version="1.0" standalone="no"?>
<!DOCTYPE svg PUBLIC "-//W3C//DTD SVG 20010904//EN"
        "http://www.w3.org/TR/2001/REC-SVG-20010904/DTD/svg10.dtd">
<svg version="1.0" xmlns="http://www.w3.org/2000/svg"
     width="96.000000pt" height="96.000000pt" viewBox="0 0 96.000000 96.000000"
     preserveAspectRatio="xMidYMid meet">

    <g transform="translate(0.000000,96.000000) scale(0.100000,-0.100000)"
       fill="currentColor" stroke="none">
        <path d="M282 843 c-38 -18 -49 -36 -78 -118 -15 -42 -26 -61 -40 -63 -53 -8
-64 -13 -64 -32 0 -13 9 -22 26 -26 l25 -6 -22 -21 c-33 -31 -49 -80 -49 -150
0 -72 17 -100 45 -77 11 9 15 32 15 82 0 64 3 72 29 99 l29 29 281 0 280 0 28
-24 c27 -23 28 -28 31 -130 l4 -105 -79 -3 -78 -3 -3 -62 c-3 -56 0 -66 22
-88 22 -21 34 -25 89 -25 53 0 67 4 85 23 21 22 22 33 22 185 0 172 -8 210
-49 249 l-22 21 25 6 c16 4 26 13 26 25 0 21 -19 31 -55 31 -20 0 -27 10 -45
64 -12 36 -30 76 -41 90 -37 48 -129 58 -129 15 0 -14 9 -21 29 -25 42 -9 61
-34 87 -114 l22 -70 -248 0 -249 0 25 72 c35 104 39 107 153 110 95 3 96 3 96
28 0 25 -1 25 -95 27 -72 2 -103 -1 -128 -14z m538 -633 c0 -29 -1 -30 -50
-30 -49 0 -50 1 -50 30 0 29 1 30 50 30 49 0 50 -1 50 -30z"/>
        <path d="M230 465 c-26 -32 13 -81 48 -59 22 14 27 41 12 59 -16 19 -44 19
-60 0z"/>
        <path d="M670 465 c-26 -32 13 -81 48 -59 22 14 27 41 12 59 -16 19 -44 19
-60 0z"/>
        <path d="M384 405 c-3 -8 -3 -22 0 -30 5 -13 22 -15 98 -13 92 3 93 3 93 28 0
25 -1 25 -93 28 -76 2 -93 0 -98 -13z"/>
        <path d="M87 293 c-4 -3 -7 -33 -7 -65 0 -49 4 -63 25 -83 20 -21 33 -25 88
-25 77 0 107 23 107 83 l0 37 139 0 c111 0 141 3 151 15 10 12 10 18 0 30 -10
13 -52 15 -255 15 -133 0 -245 -3 -248 -7z m153 -83 c0 -29 -1 -30 -50 -30
-49 0 -50 1 -50 30 0 29 1 30 50 30 49 0 50 -1 50 -30z"/>
    </g>
</svg>
